<svg width="100" height="100" viewBox="0 0 128 128" fill="none" xmlns="http://www.w3.org/2000/svg">
<g clip-path="url(#clip0_6_12)">
<rect width="128" height="128" fill="white"/>
<path d="M40.9822 32.64L38.5022 40.64H54.2622L51.7822 32.64C50.8222 29.7067 49.9155 26.8 49.0622 23.92C48.2089 20.9867 47.3555 18 46.5022 14.96H46.1822C45.3822 18 44.5555 20.9867 43.7022 23.92C42.8489 26.8 41.9422 29.7067 40.9822 32.64ZM24.9822 62L42.7422 9.52H50.2622L68.0222 62H60.9022L55.9422 46H36.8222L31.7822 62H24.9822Z" fill="#2B2B2B"/>
<path d="M60.9373 116V61.552H67.8263V88.859H68.0753L90.7343 61.552H98.5363L81.5213 82.302L101.192 116H93.4733L77.2053 87.697L67.8263 98.736V116H60.9373Z" fill="#2B2B2B"/>
<path d="M98.48 124.16V120.4H107.76V59.12H98.48V55.36H112.72V124.16H98.48Z" fill="#2B2B2B"/>
<path d="M13.52 72.16V3.36H27.84V7.12H18.48V68.4H27.84V72.16H13.52Z" fill="#2B2B2B"/>
</g>
<defs>
<clipPath id="clip0_6_12">
<rect width="128" height="128" fill="white"/>
</clipPath>
</defs>
</svg>
